<svg height="512pt" viewBox="-164 0 512 512.024" width="512pt" xmlns="http://www.w3.org/2000/svg"><path d="m163.996094 0c-9.664063 0-17.742188 6.878906-19.59375 16h-8.40625v-8c0-4.425781-3.574219-8-8-8-4.425782 0-8 3.574219-8 8v8h-8v-8c0-4.425781-3.574219-8-8-8-4.425782 0-8 3.574219-8 8v8h-8v-8c0-4.425781-3.574219-8-8-8-4.425782 0-8 3.574219-8 8v8h-8v-8c0-4.425781-3.574219-8-8-8-4.425782 0-8 3.574219-8 8v8h-8.390625c-1.847657-9.121094-9.929688-16-19.59375-16-11.03125 0-20.0000002 8.96875-20.0000002 20v327.816406c0 43.847656 30.8554692 80.566406 71.9843752 89.734375v18.425781c0 4.421876 3.574218 8 8 8h4.007812v40.046876c0 4.425781 3.574219 8 8 8 4.425782 0 8-3.574219 8-8v-40.046876h3.992188c4.425781 0 8-3.578124 8-8v-18.417968c41.136718-9.167969 72-45.886719 72-89.742188v-327.816406c0-11.03125-8.96875-20-20-20zm-20 32v40.007812h-8v-40.007812zm-24 0v40.007812h-8v-40.007812zm-24 0v40.007812h-8v-40.007812zm-24 0v40.007812h-8v-40.007812zm-24 40.007812h-7.984375v-40.007812h7.984375zm-27.984375-56.007812c2.199219 0 4 1.800781 4 4v60.007812c0 4.425782 3.578125 8 8 8h119.984375c4.425781 0 8-3.574218 8-8v-60.007812c0-2.199219 1.800781-4 4-4 2.199218 0 4 1.800781 4 4v68.03125c0 4.410156-3.574219 7.984375-7.976563 7.992188-.007812 0-.015625 0-.023437 0h-23.769532c-.085937 0-.152343-.046876-.230468-.046876-.082032 0-.152344.046876-.230469.046876h-87.539063c-.085937 0-.152343-.046876-.230468-.046876-.082032 0-.152344.046876-.230469.046876h-23.761719c-.007812 0-.007812 0-.015625 0-4.410156-.007813-7.976562-3.582032-7.976562-7.992188v-68.03125c0-2.199219 1.800781-4 4-4zm107.984375 103.992188h-72v-7.96875h72zm-32 327.976562h-8v-8.367188c1.335937.054688 2.65625.199219 4.007812.199219 1.34375 0 2.65625-.144531 3.992188-.199219zm-3.992188-24.160156c-41.894531 0-75.992187-34.097656-75.992187-75.992188v-237.265625c2.511719.898438 5.175781 1.480469 8 1.480469.015625 0 .023437-.007812.039062-.007812h15.945313v15.96875c0 4.421874 3.574218 8 8 8h88c4.425781 0 8-3.578126 8-8v-15.96875h15.960937c.015625 0 .023438.007812.039063.007812 2.824218 0 5.488281-.574219 8-1.480469v237.257813c0 41.902344-34.097656 76-75.992188 76zm0 0"/><path d="m151.996094 200.015625h-120c-4.425782 0-8 3.578125-8 8v32c0 4.425781 3.574218 8 8 8h120c4.425781 0 8-3.574219 8-8v-32c0-4.421875-3.574219-8-8-8zm-64.046875 16h8.023437v16h-8.023437zm-16 16h-8.023438v-16h8.023438zm40.023437-16h8.023438v16h-8.023438zm-71.976562 0h7.929687v16h-7.929687zm104 16h-8v-16h8zm0 0"/><path d="m91.996094 272.015625c-24.257813 0-44 19.746094-44 44 0 24.257813 19.742187 44 44 44 24.257812 0 44-19.742187 44-44 0-24.253906-19.742188-44-44-44zm0 72c-15.441406 0-28-12.558594-28-28s12.558594-28 28-28 28 12.558594 28 28-12.558594 28-28 28zm0 0"/><path d="m103.996094 308.015625h-24c-4.425782 0-8 3.578125-8 8 0 4.425781 3.574218 8 8 8h24c4.425781 0 8-3.574219 8-8 0-4.421875-3.574219-8-8-8zm0 0"/><path d="m47.996094 176.03125h88c4.425781 0 8-3.574219 8-8 0-4.421875-3.574219-8-8-8h-88c-4.425782 0-8 3.578125-8 8 0 4.425781 3.574218 8 8 8zm0 0"/></svg>