<svg height="512pt" viewBox="-101 0 512 512.00129" width="512pt" xmlns="http://www.w3.org/2000/svg"><path d="m135.5 257.34375c-4.140625 0-7.5 3.355469-7.5 7.5 0 4.285156-3.484375 7.769531-7.773438 7.769531-4.285156 0-7.769531-3.484375-7.769531-7.769531 0-4.144531-3.359375-7.5-7.5-7.5-4.144531 0-7.5 3.355469-7.5 7.5 0 12.554688 10.214844 22.769531 22.769531 22.769531 12.558594 0 22.773438-10.214843 22.773438-22.769531 0-4.144531-3.355469-7.5-7.5-7.5zm0 0"/><path d="m189.75 287.617188c12.554688 0 22.773438-10.21875 22.773438-22.773438 0-4.144531-3.359376-7.5-7.5-7.5-4.144532 0-7.5 3.355469-7.5 7.5 0 4.285156-3.488282 7.773438-7.773438 7.773438-4.289062 0-7.773438-3.488282-7.773438-7.773438 0-4.144531-3.359374-7.5-7.5-7.5-4.144531 0-7.5 3.355469-7.5 7.5 0 12.554688 10.214844 22.773438 22.773438 22.773438zm0 0"/><path d="m69.15625 279.621094c-.160156-4.136719-3.660156-7.347656-7.789062-7.199219-4.136719.164063-7.359376 3.652344-7.199219 7.792969.242187 6.152344 2.453125 12.183594 6.5625 17.917968 1.464843 2.042969 3.769531 3.128907 6.105469 3.128907 1.511718 0 3.039062-.457031 4.363281-1.402344 3.363281-2.414063 4.136719-7.101563 1.722656-10.464844-2.371094-3.3125-3.640625-6.597656-3.765625-9.773437zm0 0"/><path d="m126.597656 294.878906c-3.5625 2.972656-6.605468 5.148438-9.582031 6.851563-3.59375 2.054687-4.84375 6.636719-2.789063 10.230469 1.386719 2.421874 3.914063 3.78125 6.519532 3.78125 1.261718 0 2.539062-.320313 3.714844-.988282 3.761718-2.152344 7.496093-4.808594 11.75-8.363281 3.183593-2.65625 3.605468-7.386719.953124-10.566406-2.65625-3.175781-7.386718-3.601563-10.566406-.945313zm0 0"/><path d="m99.835938 305.382812c-3.886719-.59375-8.042969-1.953124-12.03125-3.925781-3.710938-1.835937-8.207032-.316406-10.046876 3.394531-1.835937 3.714844-.320312 8.210938 3.394532 10.050782 5.347656 2.648437 11.019531 4.484375 16.410156 5.308594.386719.058593.769531.089843 1.144531.089843 3.640625 0 6.835938-2.65625 7.40625-6.367187.628907-4.09375-2.183593-7.921875-6.277343-8.550782zm0 0"/><path d="m193.628906 301.730469c-2.972656-1.703125-6.019531-3.878907-9.582031-6.851563-3.179687-2.65625-7.910156-2.230468-10.5625.949219-2.65625 3.179687-2.230469 7.90625.949219 10.5625 4.257812 3.554687 7.992187 6.214844 11.753906 8.363281 1.171875.671875 2.453125.988282 3.714844.988282 2.601562 0 5.132812-1.355469 6.515625-3.777344 2.054687-3.597656.808593-8.179688-2.789063-10.234375zm0 0"/><path d="m222.839844 301.457031c-3.984375 1.972657-8.144532 3.332031-12.03125 3.925781-4.09375.628907-6.902344 4.457032-6.273438 8.550782.566406 3.710937 3.761719 6.363281 7.402344 6.363281.378906 0 .761719-.027344 1.148438-.085937 5.386718-.828126 11.058593-2.664063 16.40625-5.308594 3.714843-1.839844 5.234374-6.339844 3.394531-10.050782-1.835938-3.710937-6.335938-5.230468-10.046875-3.394531zm0 0"/><path d="m249.277344 272.425781c-4.121094-.148437-7.625 3.058594-7.789063 7.195313-.125 3.175781-1.394531 6.460937-3.765625 9.773437-2.414062 3.367188-1.640625 8.050781 1.722656 10.464844 1.324219.949219 2.851563 1.40625 4.363282 1.40625 2.335937 0 4.636718-1.089844 6.105468-3.132813 4.109376-5.734374 6.316407-11.765624 6.5625-17.917968.164063-4.140625-3.058593-7.628906-7.199218-7.789063zm0 0"/><path d="m135.875 182.972656c-4.144531 0-7.5 3.359375-7.5 7.5v7c0 4.140625 3.355469 7.5 7.5 7.5 4.140625 0 7.5-3.359375 7.5-7.5v-7c0-4.140625-3.359375-7.5-7.5-7.5zm0 0"/><path d="m135.875 212.972656c-4.144531 0-7.5 3.359375-7.5 7.5v15c0 4.144532 3.355469 7.5 7.5 7.5 4.140625 0 7.5-3.355468 7.5-7.5v-15c0-4.140625-3.359375-7.5-7.5-7.5zm0 0"/><path d="m174.746094 242.972656c4.144531 0 7.5-3.355468 7.5-7.5v-15c0-4.140625-3.355469-7.5-7.5-7.5-4.140625 0-7.5 3.359375-7.5 7.5v15c0 4.144532 3.359375 7.5 7.5 7.5zm0 0"/><path d="m174.746094 204.972656c4.144531 0 7.5-3.355468 7.5-7.5v-6.996094c0-4.144531-3.355469-7.5-7.5-7.5-4.140625 0-7.5 3.355469-7.5 7.5v6.996094c0 4.144532 3.359375 7.5 7.5 7.5zm0 0"/><path d="m273.726562 437.960938-67.53125-28.773438c-3.808593-1.625-6.269531-5.347656-6.269531-9.484375v-9.96875c27.960938-13.964844 49.710938-35.203125 64.769531-63.289063 9.132813-17.039062 15.652344-36.253906 19.488282-57.332031 2.617187-1.300781 4.65625-3.046875 5.613281-3.953125 21.371094-19.300781 18.125-79.703125 17.679687-86.601562-.480468-6.558594-1.285156-12.875-2.394531-18.769532-.761719-4.074218-4.679687-6.75-8.753906-5.992187-4.070313.765625-6.75 4.683594-5.988281 8.753906 1.003906 5.351563 1.738281 11.105469 2.171875 17.039063 1.441406 22.324218-.546875 61.148437-11.722657 73.394531-4.113281-17.054687-22.921874-66.429687-105.625-97.222656-.238281-.085938-24.3125-9.132813-46.703124-24.878907-28.371094-19.957031-40.894532-40.6875-37.222657-61.613281.03125-.179687.0625-.402343.078125-.585937.132813-1.304688 3.164063-27.882813 31.089844-43.460938 10.066406 15.128906 27.367188 23.597656 44.417969 30.957032 18.113281 7.820312 33.699219 15.40625 40.964843 29.074218 1.347657 2.539063 3.945313 3.984375 6.628907 3.984375 1.1875 0 2.390625-.285156 3.515625-.878906 3.65625-1.945313 5.046875-6.488281 3.101562-10.144531-10.324218-19.429688-32.253906-28.894532-48.261718-35.804688-14.5-6.257812-28.136719-12.832031-36.242188-23.261718.589844-.191407 1.160156-.390626 1.765625-.570313 26.40625-7.890625 55.945313-2.582031 79.023437 14.1875 18.113282 13.167969 33.378907 29.675781 45.375 49.066406.328126.527344.421876 1.171875.265626 1.769531l-1.546876 5.78125c-1.203124 4.496094-.511718 9.363282 1.894532 13.355469 1.414062 2.351563 2.828125 4.648438 4.230468 6.933594 4.527344 7.367187 8.804688 14.332031 12.546876 21.972656 1.824218 3.71875 6.316406 5.257813 10.035156 3.4375 3.71875-1.820312 5.257812-6.3125 3.4375-10.035156-4.058594-8.285156-8.519532-15.542969-13.238282-23.230469-1.382812-2.242187-2.773437-4.507812-4.164062-6.816406-.316406-.523438-.40625-1.160156-.25-1.742188l1.542969-5.78125c1.222656-4.574218.496093-9.503906-1.996094-13.539062-13.027344-21.054688-29.617187-38.988281-49.316406-53.304688-26.832031-19.503906-61.277344-25.644531-92.132813-16.429687-50.925781 15.210937-57.0625 58.054687-57.585937 62.742187-.84375 4.945313-1.011719 9.730469-.605469 14.359376-9.40625 2.832031-17.949219 6.824218-25.503906 11.988281-13.871094 9.488281-17.628906 17.566406-18.179688 32.925781-.003906.050781-.011718.105469-.011718.160156 0 .046875-.003907.148438-.003907.277344-.046875 1.484375-.066406 3.035156-.0625 4.660156-6.625-1.613281-12.972656.945313-17.601562 7.179688-3.808594 5.128906-10.449219 18.613281-12.132813 51.320312-.710937 13.832032.28125 27.210938 2.949219 39.773438 2.40625 11.328125 7.269531 21.792968 15.308594 32.933594 1.28125 1.769531 2.925781 3.136718 4.773437 4.054687 3.769532 22.074219 10.4375 42.148437 19.933594 59.867187 15.054688 28.078126 36.796875 49.308594 64.746094 63.273438v9.984375c0 4.136719-2.460938 7.859375-6.269532 9.484375l-1.371093.582031c-3.8125 1.625-5.585938 6.027344-3.964844 9.839844 1.625 3.8125 6.03125 5.585937 9.839844 3.960937l1.375-.582031c9.347656-3.984375 15.390625-13.125 15.390625-23.285156v-3.453125c9.710937 3.539062 19.835937 5.332031 29.964844 5.332031 10.117187 0 20.230468-1.789062 29.9375-5.324219v3.445313c0 10.160156 6.039062 19.300781 15.386718 23.285156l67.53125 28.773438c11.082032 4.71875 18.246094 15.554687 18.246094 27.605469v17.632812h-262.230469v-17.632812c0-12.050782 7.160157-22.886719 18.242188-27.605469l34.609375-14.746094c3.808594-1.625 5.582031-6.03125 3.957031-9.839844-1.625-3.8125-6.027344-5.585937-9.839844-3.960937l-34.605469 14.746094c-16.625 7.082031-27.363281 23.335937-27.363281 41.40625v25.132812c0 4.144531 3.355469 7.5 7.5 7.5h277.226563c4.144531 0 7.5-3.355469 7.5-7.5v-25.132812c0-18.070313-10.742188-34.324219-27.363282-41.40625zm-253.789062-211.484376c-2.398438-11.285156-3.285156-23.359374-2.640625-35.886718 1.03125-20.082032 4.640625-37.019532 9.195313-43.148438.945312-1.273437 1.429687-1.570312 1.820312-1.570312.15625 0 .300781.050781.453125.101562 1.265625.429688 2.542969.675782 3.800781.777344.480469 9.105469 1.441406 19.535156 3.355469 27.410156.832031 3.429688 3.898437 5.730469 7.28125 5.730469.582031 0 1.179687-.070313 1.773437-.214844 4.027344-.976562 6.496094-5.03125 5.519532-9.058593-3.722656-15.332032-3.386719-43.75-3.382813-44.035157.003907-.042969-.003906-.089843-.003906-.132812.386719-11.222657 2.773437-14.691407 11.667969-20.773438 6.003906-4.105469 12.816406-7.339843 20.347656-9.703125 7.765625 21.3125 27.195312 38.5 46.121094 50.917969-5.035156 2.53125-10.050782 4.597656-13.921875 6.1875l-.6875.28125c-20.363281 8.363281-38.285157 21.351563-51.820313 37.5625-16.007812 19.175781-23.332031 40.339844-28.601562 59.179687-5.335938-8.0625-8.550782-15.492187-10.277344-23.625zm161.964844 154.90625c-17.355469 6.921876-36.472656 6.921876-53.828125 0-30.652344-12.222656-54.0625-33.089843-69.570313-62.023437-8.726562-16.269531-14.863281-34.796875-18.355468-55.246094 1.585937-1.589843 2.773437-3.601562 3.398437-5.90625 6.328125-23.371093 13.015625-41.171875 26.785156-57.667969 11.980469-14.347656 27.886719-25.863281 46.003907-33.304687l.683593-.277344c6.601563-2.710937 15.195313-6.242187 23.089844-11.125 15.648437 8.636719 28.367187 13.449219 29.828125 13.992188 25.976562 9.671875 61.414062 27.613281 82.695312 58.140625 12.621094 18.105468 14.316407 32.324218 14.328126 32.425781.027343.300781.078124.601563.144531.898437.5 2.234376 1.335937 3.929688 2.304687 5.222657-3.558594 19.5-9.554687 37.214843-17.933594 52.847656-15.511718 28.933594-38.917968 49.800781-69.574218 62.023437zm0 0"/><path d="m309.925781 361.664062-2.285156-28.03125c-.203125-2.535156-1.679687-4.789062-3.917969-5.996093-2.234375-1.203125-4.929687-1.195313-7.160156.027343l-26.195312 14.355469c-3.636719 1.988281-4.964844 6.546875-2.976563 10.179688 1.992187 3.632812 6.550781 4.964843 10.183594 2.972656l3.148437-1.722656c-12.820312 21.347656-28.679687 31-29.011718 31.199219-3.566407 2.089843-4.769532 6.671874-2.6875 10.246093 1.394531 2.390625 3.90625 3.726563 6.488281 3.726563 1.28125 0 2.582031-.332032 3.765625-1.023438.992187-.574218 20.394531-12.136718 35.410156-38.261718l.289062 3.546874c.320313 3.921876 3.601563 6.890626 7.46875 6.890626.203126 0 .410157-.007813.617188-.023438 4.128906-.335938 7.203125-3.957031 6.863281-8.085938zm0 0"/><path d="m14.976562 362.882812.289063-3.546874c15.011719 26.128906 34.417969 37.6875 35.40625 38.265624 1.1875.6875 2.488281 1.019532 3.769531 1.019532 2.582032 0 5.09375-1.335938 6.488282-3.726563 2.082031-3.578125.871093-8.171875-2.707032-10.257812-.199218-.113281-16.121094-9.605469-29.03125-31.210938l3.1875 1.75c3.632813 1.988281 8.191406.65625 10.183594-2.972656 1.988281-3.632813.660156-8.191406-2.972656-10.183594l-26.199219-14.355469c-2.226563-1.222656-4.921875-1.230468-7.160156-.027343-2.238281 1.207031-3.714844 3.460937-3.917969 5.996093l-2.2851562 28.035157c-.3359378 4.125 2.7343752 7.746093 6.8632812 8.082031.210937.015625.414063.027344.621094.027344 3.863281 0 7.144531-2.972656 7.464843-6.894532zm0 0"/></svg>