<svg viewBox="0 0 512 512" xmlns="http://www.w3.org/2000/svg"><path d="m502 172h-95.542969c32.914063-31.140625 86.941407-82.351562 92.128907-87.921875 9.101562-9.769531 13.855468-22.503906 13.382812-35.851563-.476562-13.347656-6.117188-25.710937-15.890625-34.8125-9.773437-9.101562-22.492187-13.851562-35.851563-13.382812-13.347656.472656-25.710937 6.117188-34.8125 15.886719-6.144531 6.59375-75.257812 88.980469-96.011718 113.734375 0 0-27.238282-12.917969-27.367188-12.972656-25.976562-11.007813-61.742187-9.792969-77.121094 14.039062l-30.222656 41.28125h-184.691406c-5.523438 0-10 4.476562-10 10v80c0 44.03125 23.75 92.554688 70.59375 144.214844 27.789062 30.652344 55.246094 52.871094 65.40625 60.746094v35.039062c0 5.523438 4.476562 10 10 10h220c5.523438 0 10-4.476562 10-10v-35.039062c10.160156-7.875 37.617188-30.09375 65.40625-60.746094 46.84375-51.660156 70.59375-100.183594 70.59375-144.214844v-80c0-5.523438-4.476562-10-10-10zm-260.378906-30.28125c8.886718-14.035156 34.078125-14.402344 52.425781-6.699219l33.769531 16.015625c3.820313 1.8125 8.367188 1.027344 11.355469-1.964844.207031-.207031 95.605469-113.859374 100.875-119.515624 11.109375-11.925782 30.5-12.59375 42.398437-1.503907 11.890626 11.070313 12.527344 30.566407 1.503907 42.398438-4.347657 4.671875-56.183594 53.90625-106.601563 101.550781h-157.867187s22.023437-30.089844 22.140625-30.28125zm-181.621094 50.28125h60v90c0 5.515625-4.484375 10-10 10s-10-4.484375-10-10v-28c0-5.523438-4.476562-10-10-10s-10 4.476562-10 10c0 5.515625-4.484375 10-10 10s-10-4.484375-10-10zm-40 0h20v20h-20zm0 40h20v20h-20zm336 260h-200v-20h200zm6.628906-40h-213.257812c-17.679688-13.660156-120.957032-96.808594-128.886719-180h25.53125c5.480469 7.28125 14.191406 12 23.984375 12 3.503906 0 6.871094-.605469 10-1.714844.15625 16.410156 13.554688 29.714844 30 29.714844 16.542969 0 30-13.457031 30-30v-10h351.515625c-7.933594 83.195312-111.21875 166.347656-128.886719 180zm129.371094-240h-196c-5.511719 0-10 4.488281-10 10 0 5.507812 4.488281 10 10 10h196v20h-352v-20h76c5.511719 0 10-4.492188 10-10 0-5.511719-4.488281-10-10-10h-76v-20h352zm0 0"/><path d="m256 232c5.511719 0 10-4.492188 10-10 0-5.511719-4.488281-10-10-10s-10 4.488281-10 10c0 5.507812 4.488281 10 10 10zm0 0"/><path d="m397.582031 384.941406c4.066407-.003906 6.769531-2.527344 9.304688-5.328125 20.398437-22.53125 39.664062-43.816406 49.347656-72.40625 1.769531-5.230469-1.035156-10.910156-6.265625-12.679687-5.230469-1.769532-10.90625 1.035156-12.679688 6.265625-8.351562 24.660156-25.441406 43.539062-45.226562 65.398437l-1.890625 2.089844c-3.707031 4.09375-3.390625 10.417969.707031 14.125 1.871094 1.691406 4.285156 2.535156 6.703125 2.535156zm0 0"/><path d="m93.269531 332.628906c-2.859375-4.484375-9.238281-5.972656-13.808593-3.050781-4.574219 2.925781-5.976563 9.242187-3.050782 13.8125 8.828125 13.839844 19.878906 28.097656 32.847656 42.386719 3.621094 3.992187 10.144532 4.300781 14.121094.691406 4.027344-3.65625 4.347656-10.105469.691406-14.128906-12.222656-13.460938-22.582031-26.820313-30.800781-39.710938zm0 0"/><path d="m473 49c0 5.523438-4.476562 10-10 10s-10-4.476562-10-10 4.476562-10 10-10 10 4.476562 10 10zm0 0"/><path d="m155 407c0 5.523438-4.476562 10-10 10s-10-4.476562-10-10 4.476562-10 10-10 10 4.476562 10 10zm0 0"/></svg>