<svg height="480pt" viewBox="0 0 480 480.02219" width="480pt" xmlns="http://www.w3.org/2000/svg"><path d="m231.878906 192h16v16h-16zm0 0"/><path d="m231.878906 160h16v16h-16zm0 0"/><path d="m231.878906 128h16v16h-16zm0 0"/><path d="m231.878906 96h16v16h-16zm0 0"/><path d="m231.878906 64h16v16h-16zm0 0"/><path d="m231.878906 32h16v16h-16zm0 0"/><path d="m231.878906 0h16v16h-16zm0 0"/><path d="m95.878906 152h16v16h-16zm0 0"/><path d="m95.878906 120h16v16h-16zm0 0"/><path d="m95.878906 88h16v16h-16zm0 0"/><path d="m95.878906 56h16v16h-16zm0 0"/><path d="m95.878906 24h16v16h-16zm0 0"/><path d="m367.878906 152h16v16h-16zm0 0"/><path d="m367.878906 120h16v16h-16zm0 0"/><path d="m367.878906 88h16v16h-16zm0 0"/><path d="m367.878906 56h16v16h-16zm0 0"/><path d="m367.878906 24h16v16h-16zm0 0"/><path d="m103.878906 288c-17.671875 0-32 14.328125-32 32s14.328125 32 32 32c17.675782 0 32-14.328125 32-32s-14.324218-32-32-32zm0 48c-8.835937 0-16-7.164062-16-16s7.164063-16 16-16c8.835938 0 16 7.164062 16 16s-7.164062 16-16 16zm0 0"/><path d="m281.03125 372.945312-23.289062-3.34375-10.398438-21.097656c-1.347656-2.726562-4.128906-4.457031-7.171875-4.457031s-5.824219 1.730469-7.171875 4.457031l-10.398438 21.105469-23.28125 3.382813c-3.015624.4375-5.519531 2.550781-6.460937 5.445312-.9375 2.898438-.152344 6.078125 2.027344 8.203125l16.847656 16.414063-4 23.203124c-.515625 3 .71875 6.039063 3.1875 7.828126 2.464844 1.789062 5.734375 2.023437 8.429687.601562l20.800782-10.953125 20.800781 10.953125c2.695313 1.417969 5.960937 1.183594 8.421875-.609375 2.464844-1.789063 3.699219-4.820313 3.183594-7.820313l-4-23.203124 16.921875-16.460938c2.183593-2.125 2.96875-5.308594 2.027343-8.203125-.941406-2.898437-3.445312-5.007813-6.460937-5.445313zm-26.597656 21.550782c-1.882813 1.835937-2.742188 4.480468-2.296875 7.070312l1.945312 11.363282-10.203125-5.371094c-2.328125-1.222656-5.109375-1.222656-7.4375 0l-10.210937 5.371094 1.953125-11.363282c.441406-2.589844-.417969-5.234375-2.304688-7.070312l-8.246094-8.046875 11.40625-1.65625c2.605469-.382813 4.851563-2.019531 6.015626-4.378907l5.105468-10.34375 5.097656 10.335938c1.160157 2.367188 3.414063 4.003906 6.023438 4.386719l11.40625 1.65625zm0 0"/><path d="m175.878906 400h16v16h-16zm0 0"/><path d="m231.878906 312h16v16h-16zm0 0"/><path d="m287.878906 400h16v16h-16zm0 0"/><path d="m475.457031 288.800781-.433593-.214843c-10.226563-31.988282-35.210938-57.101563-67.144532-67.496094v-29.089844c0-4.417969-3.582031-8-8-8h-48c-4.417968 0-8 3.582031-8 8v29.046875c-23.925781 7.671875-44.238281 23.796875-57.136718 45.359375-4.808594-2.246094-9.777344-4.148438-14.863282-5.6875v-28.71875c0-4.417969-3.582031-8-8-8h-48c-4.417968 0-8 3.582031-8 8v28.71875c-5.082031 1.539062-10.050781 3.441406-14.863281 5.6875-12.898437-21.5625-33.210937-37.691406-57.136719-45.367188v-29.039062c0-4.417969-3.582031-8-8-8h-48c-4.417968 0-8 3.582031-8 8v29.089844c-48.628906 15.796875-78.5625 64.601562-70.597656 115.109375 7.964844 50.511719 51.464844 87.738281 102.597656 87.800781 12.191406-.003906 24.285156-2.171875 35.722656-6.398438 18.800782 38.214844 57.6875 62.421876 100.277344 62.421876s81.480469-24.207032 100.28125-62.421876c37.105469 13.609376 78.722656 4.996094 107.378906-22.222656 28.65625-27.222656 39.390626-68.34375 27.699219-106.097656zm-169.601562 30.09375-8.246094-8.046875 11.40625-1.65625c1.800781-.273437 3.449219-1.15625 4.679687-2.496094 7.03125 8.496094 12.542969 18.136719 16.296876 28.503907l-6.113282-3.199219c-2.328125-1.222656-5.109375-1.222656-7.4375 0l-10.210937 5.367188 1.953125-11.359376c.441406-2.59375-.417969-5.238281-2.304688-7.070312zm40.234375 13.808594c-3.167969-9.570313-7.617188-18.671875-13.226563-27.046875 1.730469.078125 3.457031.289062 5.175781.289062 14.863282.007813 29.59375-2.824218 43.394532-8.34375 25.859375-10.300781 54.824218-9.464843 80.046875 2.308594 1.570312 6.582032 2.375 13.324219 2.398437 20.089844-.015625 3.835938-.285156 7.667969-.796875 11.472656l-16.394531 8.191406c-13.734375 6.84375-30.074219 5.828126-42.855469-2.664062-16.878906-11.332031-38.4375-13.078125-56.917969-4.609375zm13.789062-132.703125h32v17.359375c-10.589844-1.777344-21.398437-1.8125-32-.101563zm16 32c33.035156.039062 63.265625 18.574219 78.28125 48-25.753906-8.207031-53.554687-7.238281-78.671875 2.742188-18.242187 7.3125-38.226562 9.109374-57.480469 5.167968-5.230468-5.101562-10.949218-9.679687-17.070312-13.671875 15.84375-26.25 44.28125-42.277343 74.941406-42.238281zm-152 8h32v17.28125c-10.597656-1.707031-21.402344-1.707031-32 0zm-52.304687 78.015625 1.953125 11.359375-10.207032-5.375c-2.328124-1.222656-5.109374-1.222656-7.441406 0l-1.648437.871094c4.378906-8.671875 10.042969-16.628906 16.800781-23.605469l11.121094 1.597656-8.273438 8.074219c-1.886718 1.835938-2.746094 4.484375-2.304687 7.078125zm-83.695313-118.015625h32v17.257812c-10.601562-1.710937-21.410156-1.675781-32 .101563zm-38.628906 51.136719c4.902344 3.542969 7.382812 9.558593 6.398438 15.53125-.984376 5.972656-5.265626 10.875-11.050782 12.65625s-12.078125.136719-16.253906-4.246094c5.464844-9.175781 12.550781-17.289063 20.90625-23.941406zm-21.753906 112.390625c3.722656-2.292969 8.011718-3.515625 12.382812-3.527344 8.667969-.039062 16.679688 4.621094 20.933594 12.175781 4.25 7.554688 4.078125 16.816407-.453125 24.207031-13.683594-7.832031-25.027344-19.171874-32.863281-32.855468zm76.382812 44.472656c-9.875-.019531-19.679687-1.714844-28.992187-5.007812 3.234375-5.8125 4.949219-12.34375 4.992187-18.992188-.023437-22.082031-17.917968-39.972656-40-40-6.648437.042969-13.179687 1.761719-18.992187 4.992188-6.804688-19.113282-6.667969-40.011719.386719-59.03125 13.371093 9.636718 31.878906 7.519531 42.726562-4.890626 10.847656-12.410156 10.476562-31.035156-.863281-43 40.996093-21.570312 91.703125-7.476562 115.6875 32.160157-42.59375 27.5625-61.226563 80.394531-45.34375 128.578125-9.492188 3.425781-19.507813 5.183594-29.601563 5.191406zm136 56c-29.132812.070312-56.714844-13.128906-74.941406-35.859375-18.222656-22.726563-25.113281-52.519531-18.714844-80.941406l13.378906-7.03125 20.796876 10.945312c2.699218 1.421875 5.964843 1.1875 8.433593-.601562 2.464844-1.792969 3.699219-4.828125 3.183594-7.832031l-4-23.199219 16.847656-16.425781c2.183594-2.125 2.96875-5.304688 2.027344-8.199219-.941406-2.898438-3.445313-5.007813-6.457031-5.449219l-12.800782-1.855469c35.1875-22.949219 81.234376-20.238281 113.488282 6.679688l-21.90625 3.203125c-3.011719.4375-5.515625 2.546875-6.457032 5.445312-.941406 2.894532-.15625 6.074219 2.027344 8.199219l16.847656 16.425781-4 23.199219c-.515624 3.003906.71875 6.039063 3.183594 7.832031 2.464844 1.789063 5.734375 2.023438 8.433594.601563l20.796875-10.945313 14.882813 7.816406c3.640624 27.339844-4.730469 54.917969-22.953126 75.621094-18.222656 20.707032-44.515624 32.511719-72.097656 32.371094zm136-56c-10.089844-.007812-20.105468-1.765625-29.597656-5.191406 5.835938-17.484375 7.140625-36.164063 3.800781-54.289063l3.421875-1.597656c13.453125-6.164063 29.144532-4.894531 41.433594 3.351563 17.554688 11.675781 40.015625 13.074218 58.886719 3.671874l3.945312-1.945312c-13.191406 33.726562-45.675781 55.941406-81.890625 56zm0 0"/></svg>