<?xml version="1.0" encoding="iso-8859-1"?>
<!-- Generator: Adobe Illustrator 17.1.0, SVG Export Plug-In . SVG Version: 6.00 Build 0)  -->
<!DOCTYPE svg PUBLIC "-//W3C//DTD SVG 1.1//EN" "http://www.w3.org/Graphics/SVG/1.1/DTD/svg11.dtd">
<svg version="1.1" id="Capa_1" xmlns="http://www.w3.org/2000/svg" xmlns:xlink="http://www.w3.org/1999/xlink" x="0px" y="0px"
	 viewBox="0 0 456.145 456.145" style="enable-background:new 0 0 456.145 456.145;" xml:space="preserve">
<path d="M446.145,226.898H233.003c-0.781-1.35-1.537-2.664-2.267-3.932c-13.214-22.966-21.191-36.828-46.062-36.828h-66.571v-30.492
	h105.342v5.9c0,5.523,4.478,10,10,10h65.394c5.522,0,10-4.477,10-10c0-31.426-25.567-56.992-56.997-56.992H108.104H71.306
	l45.99-45.99c3.905-3.905,3.905-10.237,0-14.143c-3.906-3.905-10.236-3.905-14.143,0l-63.062,63.062
	c-0.034,0.034-0.062,0.071-0.095,0.105c-0.196,0.201-0.387,0.408-0.565,0.625c-0.105,0.129-0.197,0.264-0.296,0.396
	c-0.096,0.129-0.197,0.255-0.286,0.389c-0.102,0.152-0.19,0.31-0.283,0.466c-0.074,0.124-0.152,0.245-0.221,0.373
	c-0.084,0.157-0.155,0.318-0.23,0.478c-0.064,0.136-0.132,0.27-0.19,0.409c-0.064,0.155-0.116,0.313-0.172,0.47
	c-0.054,0.151-0.112,0.3-0.159,0.455c-0.048,0.158-0.083,0.318-0.123,0.478c-0.039,0.157-0.083,0.311-0.115,0.47
	c-0.037,0.186-0.06,0.374-0.086,0.562c-0.019,0.135-0.045,0.269-0.058,0.406c-0.033,0.331-0.05,0.663-0.05,0.994v71.579h-9.694
	C12.322,186.138,0,198.46,0,213.607v23.291v135.755c0,23.159,18.841,42,42,42h163.87c66.208,0,128.579-18.089,175.624-50.935
	c48.139-33.609,74.65-78.648,74.65-126.82C456.145,231.375,451.667,226.898,446.145,226.898z M251.846,124.553
	c16.935,0,31.247,11.437,35.62,26.992h-44.021v-5.9c0-5.523-4.477-10-10-10H118.104v-11.092H251.846z M57.163,124.553h40.94v21.092
	v40.492h-40.94V124.553z M27.469,206.138h157.206c11.588,0,15.288,3.81,25.224,20.76H20v-13.291
	C20,209.488,23.351,206.138,27.469,206.138z M205.87,394.653H42c-12.131,0-22-9.869-22-22V246.898h207.241
	c0.008,0,0.015,0.001,0.023,0.001s0.015-0.001,0.022-0.001h208.401C428.128,329.24,327.939,394.653,205.87,394.653z"/>
<g>
</g>
<g>
</g>
<g>
</g>
<g>
</g>
<g>
</g>
<g>
</g>
<g>
</g>
<g>
</g>
<g>
</g>
<g>
</g>
<g>
</g>
<g>
</g>
<g>
</g>
<g>
</g>
<g>
</g>
</svg>
