<svg id="Layer_35" enable-background="new 0 0 64 64" height="512" viewBox="0 0 64 64" width="512" xmlns="http://www.w3.org/2000/svg" xmlns:xlink="http://www.w3.org/1999/xlink"><linearGradient id="SVGID_1_" gradientUnits="userSpaceOnUse" x1="32" x2="32" y1="63" y2="1"><stop offset="0" stop-color="#9f2fff"/><stop offset="1" stop-color="#0bb1d3"/></linearGradient><path d="m29 17h2v8h-2zm10 2v4c0 1.103-.897 2-2 2h-2c-1.103 0-2-.897-2-2v-4c0-1.103.897-2 2-2h2c1.103 0 2 .897 2 2zm-1.999 4-.001-4h-2v4zm3.999 2h2v-8h-2zm10 2h-2v8h2zm-26-2h2v-8h-2zm24 0h-2c-1.103 0-2-.897-2-2v-4c0-1.103.897-2 2-2h2c1.103 0 2 .897 2 2v4c0 1.103-.897 2-2 2zm-2-2h2.001l-.001-4h-2zm13.545-1.539 2.455.818v7.441l-2.455.818c-.587 2.941-1.727 5.692-3.394 8.192l1.157 2.315-5.262 5.262-2.316-1.157c-.735.491-1.507.93-2.293 1.331-.069.21-.155.413-.236.619 3.842.583 6.799 3.898 6.799 7.9 0 4.411-3.589 8-8 8h-39c-3.859 0-7-3.141-7-7s3.141-7 7-7h.47c-.302-.959-.47-1.967-.47-3 0-5.282 4.12-9.609 9.313-9.965-.849-1.747-1.475-3.586-1.858-5.496l-2.455-.818v-3.721h-6.184c-.414 1.161-1.514 2-2.816 2-1.654 0-3-1.346-3-3s1.346-3 3-3c1.302 0 2.402.839 2.816 2h6.184v-1.721l2.455-.818c.238-1.19.589-2.338 1.006-3.461h-7.645c-.414 1.161-1.514 2-2.816 2-1.654 0-3-1.346-3-3s1.346-3 3-3c1.302 0 2.402.839 2.816 2h8.499c.454-.936.949-1.854 1.534-2.731l-1.157-2.315.953-.954h-11.829c-.414 1.161-1.514 2-2.816 2-1.654 0-3-1.346-3-3s1.346-3 3-3c1.302 0 2.402.839 2.816 2h13.829l2.308-2.309 2.316 1.158c2.501-1.668 5.251-2.808 8.191-3.395l.819-2.454h7.441l.818 2.455c2.94.587 5.69 1.727 8.191 3.395l2.316-1.158 5.262 5.262-1.157 2.315c1.668 2.5 2.807 5.25 3.395 8.192zm-55.545-12.461c0-.551-.448-1-1-1s-1 .449-1 1 .448 1 1 1 1-.449 1-1zm2 8c0-.551-.448-1-1-1s-1 .449-1 1 .448 1 1 1 1-.449 1-1zm-2 8c0-.551-.448-1-1-1s-1 .449-1 1 .448 1 1 1 1-.449 1-1zm42.233 24.012c-2.254 3.574-6.439 5.988-11.233 5.988v-2c6.065 0 11-4.486 11-10s-4.935-10-11-10c-4.61 0-8.77 2.685-10.335 6.59 1.455 1.737 2.335 3.972 2.335 6.41h-2c0-4.411-3.589-8-8-8s-8 3.589-8 8c0 2.409 1.071 4.668 2.938 6.196l-1.268 1.547c-.95-.777-1.725-1.712-2.322-2.743h-1.348c-2.757 0-5 2.243-5 5s2.243 5 5 5h39c3.309 0 6-2.691 6-6 0-3.23-2.567-5.864-5.767-5.988zm1.18-9.581c4.146-3.213 6.587-8.133 6.587-13.431 0-9.374-7.626-17-17-17s-17 7.626-17 17c0 3.97 1.371 7.746 3.87 10.782.443-.68.96-1.307 1.53-1.884-.809-.257-1.4-1.006-1.4-1.898v-4c0-1.103.897-2 2-2h2c1.103 0 2 .897 2 2v2.913c.643-.245 1.312-.443 2-.591v-4.322h2v4.037c.331-.023.664-.037 1-.037.338 0 .669.023 1 .047v-4.047h2v4.335c.688.151 1.359.343 2 .59v-2.925c0-1.103.897-2 2-2h2c1.103 0 2 .897 2 2v4c0 .903-.606 1.66-1.429 1.907 1.277 1.286 2.265 2.819 2.842 4.524zm-3.413-10.431h-2v3.904c.056.033.115.062.17.096h1.83zm-16.204 4c.069-.042.135-.087.204-.128v-3.872h-2v4zm32.204-9.279-2.214-.737-.102-.589c-.531-3.069-1.712-5.919-3.509-8.469l-.345-.489 1.044-2.088-3.223-3.223-2.088 1.043-.489-.344c-2.553-1.798-5.402-2.979-8.47-3.509l-.589-.102-.736-2.214h-4.559l-.737 2.213-.589.102c-3.067.531-5.917 1.711-8.47 3.509l-.489.344-2.088-1.043-3.223 3.223 1.044 2.088-.345.489c-1.797 2.55-2.978 5.4-3.509 8.469l-.102.589-2.212.738v4.559l2.214.737.102.589c.398 2.303 1.187 4.497 2.318 6.54 1.067.177 2.079.516 3.005 1.003-2.35-3.228-3.639-7.094-3.639-11.149 0-10.477 8.523-19 19-19s19 8.523 19 19c0 6.23-3.021 11.992-8.104 15.556.062.474.104.954.104 1.444 0 .305-.025.603-.049.902.381-.234.761-.47 1.125-.726l.488-.345 2.089 1.044 3.223-3.223-1.044-2.089.345-.488c1.797-2.551 2.978-5.4 3.509-8.469l.102-.589 2.212-.738zm-14 33.279h-15v2h15c2.206 0 4-1.794 4-4s-1.794-4-4-4v2c1.103 0 2 .897 2 2s-.897 2-2 2zm-19 2h2v-2h-2zm-4 0h2v-2h-2zm13.781-10.196.438 1.951c.779-.175 1.53-.443 2.233-.799l-.904-1.785c-.555.281-1.15.494-1.767.633zm5.219-5.804c0 1.439-.605 2.831-1.704 3.92l1.408 1.42c1.481-1.467 2.296-3.363 2.296-5.34 0-4.411-4.037-8-9-8v2c3.859 0 7 2.691 7 6zm-31 3h2c0-2.206 1.794-4 4-4v-2c-3.309 0-6 2.691-6 6zm24.929-34.962.143 1.995c.613-.044 1.243-.044 1.858 0l.141-1.995c-.71-.05-1.435-.05-2.142 0zm3.838 2.256c.604.131 1.203.307 1.778.522l.701-1.873c-.665-.249-1.357-.452-2.056-.603zm6.225.699c-.569-.427-1.175-.817-1.8-1.159l-.961 1.754c.542.297 1.067.635 1.562 1.005z" fill="url(#SVGID_1_)"/></svg>