<svg id="Layer_1" height="512" viewBox="0 0 512 512" width="512" xmlns="http://www.w3.org/2000/svg" data-name="Layer 1"><path d="m241.733 148.183a65.022 65.022 0 0 1 18.542-5.579 41.132 41.132 0 1 0 -10.9-81.538c-21.091 2.82-41.57 10.646-60.8 22.663a187.744 187.744 0 0 1 -28.6-51.387l-5.97-16.3a8 8 0 0 0 -15.024 5.5l5.97 16.3a203.625 203.625 0 0 0 30.4 54.961c-52.228 39.109-93.366 109.824-109.051 194.44-12.581 67.906-7.051 134.945 15.575 188.767a41.134 41.134 0 0 0 75.838-31.882c-16.24-38.627-20.075-90.346-10.522-141.894 8.166-44.062 25.479-84.848 48.748-114.844q2.547-3.282 5.147-6.34l14.638 17.212a25.088 25.088 0 0 1 -2.885 35.386 8 8 0 0 0 -.926 11.276l188.593 222.361a8 8 0 0 0 11.276.926l24.406-20.7a45.334 45.334 0 0 0 15.956-30.993 45.938 45.938 0 0 0 -10.7-33.349zm-110.274 151.135c-10.107 54.539-5.914 109.58 11.5 151.011a25.133 25.133 0 0 1 -46.334 19.481c-21.431-50.978-26.611-114.779-14.589-179.651 15.385-83.014 55.946-151.773 106.81-187.577a7.944 7.944 0 0 0 5.075-3.437c18.187-11.861 37.594-19.549 57.572-22.22a25.365 25.365 0 0 1 3.375-.226 25.134 25.134 0 0 1 3.286 50.047c-25.485 3.408-52.07 21.462-74.857 50.837-24.805 31.976-43.215 75.209-51.838 121.735zm304.741 115.867a29.432 29.432 0 0 1 -10.359 20.124l-18.305 15.525-178.747-210.748a41.119 41.119 0 0 0 -.878-52.19l-15.837-18.621a126.7 126.7 0 0 1 15.585-12.946l201.591 237.201a29.823 29.823 0 0 1 6.95 21.655z"/><path d="m111.077 402.779a20.886 20.886 0 1 0 13.406 8.706 20.772 20.772 0 0 0 -13.406-8.706zm1 21.426a4.884 4.884 0 1 1 -.777-3.657 4.886 4.886 0 0 1 .774 3.657z"/><path d="m233.06 126.405a20.883 20.883 0 1 0 -13.407-8.7 20.854 20.854 0 0 0 13.407 8.7zm-1-21.425a4.886 4.886 0 1 1 .778 3.657 4.895 4.895 0 0 1 -.776-3.657z"/></svg>