<svg id="Capa_1" enable-background="new 0 0 512 512" height="512" viewBox="0 0 512 512" width="512" xmlns="http://www.w3.org/2000/svg"><path id="_x3C_Group_x3E_" d="m361 61c-11.415 0-77.049 0-90 0v-31h15c8.284 0 15-6.716 15-15s-6.716-15-15-15h-120c-8.284 0-15 6.716-15 15s6.716 15 15 15h15v31h-15c-8.284 0-15 6.716-15 15v45h-15c-24.813 0-45 20.187-45 45v60c0 8.284 6.716 15 15 15 8.268 0 14.994 6.724 15 14.99v.01c0 .007.001.013.001.019v47.551c-17.461 6.191-30 22.874-30 42.43v151c0 8.284 6.716 15 15 15h240c8.284 0 15-6.716 15-15v-151c0-19.556-12.539-36.239-30-42.43v-47.57c0-8.271 6.729-15 15-15 8.284 0 15-6.716 15-15v-45c33.084 0 60-26.916 60-60s-26.917-60-60.001-60zm-150-31h30v31h-30zm-30 61h90v30h-90zm120 180v30h-150v-30zm30 211h-210v-136c0-8.271 6.729-15 15-15h180c8.271 0 15 6.729 15 15zm0-268.43c-12.766 4.526-22.894 14.664-27.421 27.43h-155.158c-4.527-12.765-14.655-22.903-27.421-27.43v-47.57c0-8.271 6.729-15 15-15h180c8.271 0 15 6.729 15 15zm30-62.57h-2.58c-6.192-17.458-22.865-30-42.42-30h-15v-30h60c16.542 0 30 13.458 30 30s-13.458 30-30 30z"/></svg>